<?xml version="1.0" encoding="iso-8859-1"?>
<!-- Generator: Adobe Illustrator 16.0.0, SVG Export Plug-In . SVG Version: 6.00 Build 0)  -->
<!DOCTYPE svg PUBLIC "-//W3C//DTD SVG 1.1//EN" "http://www.w3.org/Graphics/SVG/1.1/DTD/svg11.dtd">
<svg version="1.1" id="Capa_1" xmlns="http://www.w3.org/2000/svg" xmlns:xlink="http://www.w3.org/1999/xlink" x="0px" y="0px"
	 width="193.139px" height="193.139px" viewBox="0 0 193.139 193.139" style="enable-background:new 0 0 193.139 193.139;"
	 xml:space="preserve">
<g>
	<g>
		<path d="M191.352,19.619c-6.384,0.187-12.193,2.729-18.329,4.189c-1.214,0.289-1.479,1.468-1.112,2.45
			c-0.021,0.028-0.051,0.044-0.071,0.074c-0.027,0.04-0.032,0.089-0.056,0.131c-0.639,0.267-1.117,1.074-0.708,1.796
			c0.616,1.087,1.302,2.136,2.037,3.155c-6.238,4.869-12.109,11.563-16.319,15.245c-16.583,14.505-37.661,22.524-53.815,37.634
			c-1.325-2.097-4.153-3.712-5.938-5.072c-5.414-4.123-10.968-8.058-16.494-12.027c-5.461-3.922-10.921-7.853-16.176-12.049
			c-1.78-1.421-6.768-4.462-7.76-6.46c-0.218-1.116-1.434-2.093-2.737-1.37C33.958,58.382,20.746,77.988,0.624,88.948
			c-1.286,0.701-0.4,2.91,1.009,2.394c21.535-7.878,34.119-29.533,53.736-40.618c0.879,4.941,12.657,11.832,15.237,13.749
			c6.344,4.713,12.81,9.258,19.191,13.919c3.398,2.482,7.467,7.241,11.483,8.798c0.411,0.948,1.717,1.553,2.738,0.64
			c15.117-13.519,33.452-21.508,49.47-33.641c7.923-6.001,14.897-12.979,22.662-19.01c1.407,1.615,2.872,3.18,4.326,4.705
			c0.03,0.033,0.08,0.04,0.113,0.07c0.43,0.605,1.427,0.81,2.104,0.19c0.074-0.043,0.122-0.113,0.187-0.167
			c0.002-0.002,0.006-0.004,0.008-0.006c0,0,0.003-0.004,0.005-0.006c0.151-0.128,0.308-0.254,0.399-0.443
			c0.056-0.112,0.094-0.23,0.147-0.342c1.94-2.623,3.66-5.373,5.259-8.222c0.896-1.595,2.037-3.461,2.748-5.352
			c0.536-1.11,1.036-2.204,1.496-3.213C193.492,21.19,192.865,19.575,191.352,19.619z"/>
		<path d="M192.32,148.76c0.103-0.924-0.45-1.982-1.655-2.115c-24.46-2.696-49.788,0.088-74.96,2.39
			c-0.031-0.064-0.068-0.125-0.1-0.19c-0.224-0.475-0.892-0.181-0.874,0.278c-8.419,0.767-16.819,1.469-25.161,1.887
			c-0.128-0.367-0.693-0.543-0.895-0.116c-0.025,0.052-0.026,0.107-0.049,0.159c-3.676,0.175-7.345,0.31-10.995,0.35
			c-11.26,0.124-22.515,0.69-33.776,0.831c-2.837,0.035-6.766,0.326-11.067,0.529c-0.087-0.062-0.163-0.138-0.251-0.198
			c-0.364-0.25-0.761-0.06-0.975,0.252c-9.59,0.407-20.671,0.241-25.742-4.145c-1.225-1.059-2.764,0.049-2.615,1.308
			c-0.65,2.8-0.453,5.811-0.582,8.675c-0.186,4.137-0.324,8.254-0.194,12.395c0.061,1.962,2.782,2.03,3.134,0.271
			c26.233,4.401,56.061,0.83,82.55,0.901c17.229,0.048,34.509-2.274,51.651-3.737c8.926-0.763,21.109-2.585,32.155-2.271
			c0.129,0.036,0.25,0.048,0.368,0.021c4.207,0.139,8.231,0.602,11.846,1.554c0.345,0.401,0.649,0.854,1.006,1.238
			c0.549,0.593,1.372,0.218,1.637-0.384c0.527,0.19,1.086,0.344,1.588,0.562c1.363,0.596,2.606-0.458,2.787-1.551
			c0.062-0.11,0.134-0.209,0.173-0.352c0.856-3.049,1.126-6.145,1.273-9.301C192.729,155.23,193.045,151.57,192.32,148.76z
			 M189.029,155.65c0.003,0.095-0.006,0.19-0.003,0.286c-0.342-0.57-0.698-1.128-0.991-1.656c-0.786-1.412-1.589-2.828-2.511-4.159
			c1.096,0.004,2.192-0.016,3.286,0.014C188.699,151.963,188.985,153.918,189.029,155.65z M11.172,168.514
			c-0.723-0.187-1.544-1.307-2.029-1.811c-1.162-1.206-2.17-2.547-3.088-3.946c0.046-0.867,0.088-1.735,0.134-2.604
			c0.047-0.875,0.119-1.782,0.185-2.687c1.732,2.299,3.45,4.608,5.163,6.92c0.737,0.995,1.969,3.263,3.427,3.771
			C13.705,168.29,12.429,168.35,11.172,168.514z M16.125,168.05c0.162-0.167,0.267-0.386,0.204-0.609
			c-0.473-1.69-2.662-3.26-3.771-4.552c-2.072-2.411-3.955-4.977-5.989-7.42c-0.027-0.031-0.067-0.021-0.097-0.046
			c0.039-0.812,0.093-1.625,0.073-2.43c0.815,0.411,1.745,0.667,2.664,0.938c2.543,3.023,5.322,5.825,8.132,8.601
			c1.45,1.432,3.085,3.603,4.881,5.112C20.188,167.771,18.146,167.854,16.125,168.05z M25.021,167.458
			c-1.334-2.394-4.525-4.412-6.413-6.193c-2.314-2.186-4.595-4.416-6.8-6.716c1.576,0.275,3.191,0.433,4.764,0.552
			c-0.049,0.127-0.052,0.273,0.038,0.432c1.69,2.999,4.155,5.461,6.675,7.77c1.18,1.081,2.842,2.941,4.554,4.083
			C26.901,167.416,25.957,167.414,25.021,167.458z M30.752,167.307c-0.007-0.021-0.004-0.046-0.011-0.064
			c-0.804-1.896-4.134-3.412-5.7-4.644c-2.725-2.143-5.451-4.514-7.383-7.421c1.553,0.101,3.048,0.171,4.366,0.266
			c0.654,0.047,1.313,0.046,1.968,0.087c0.033,0.088,0.021,0.176,0.095,0.26c2.534,2.88,5.277,5.619,8.067,8.249
			c0.97,0.914,2.195,2.2,3.539,3.235C34.045,167.282,32.395,167.271,30.752,167.307z M39.501,167.25
			c-2.139-1.772-4.616-3.169-6.704-5.074c-2.315-2.112-4.453-4.414-6.74-6.554c2.623,0.136,5.254,0.184,7.885,0.235
			c2.273,2.305,4.26,4.921,6.347,7.37c1.013,1.188,2.325,2.963,3.858,4.1C42.599,167.299,41.047,167.261,39.501,167.25z
			 M47.978,167.4c-0.054-0.242-0.187-0.465-0.508-0.552c-2.905-0.787-5.461-4.55-7.34-6.683c-1.237-1.402-2.459-2.864-3.765-4.234
			c1.646,0.019,3.294-0.041,4.941-0.046c1.539,3.187,3.854,6.09,6.147,8.755c0.714,0.829,1.571,1.88,2.53,2.822
			C49.314,167.442,48.646,167.417,47.978,167.4z M53.5,167.57c-4.154-2.874-7.91-7.427-10.536-11.7
			c1.895-0.013,3.789-0.063,5.684-0.094c1.355,2.356,3.15,4.505,4.969,6.495c1.144,1.252,2.344,2.46,3.559,3.644
			c0.597,0.582,1.194,1.26,1.843,1.856C57.178,167.703,55.338,167.632,53.5,167.57z M61.515,167.862
			c-0.997-2.159-3.738-3.988-5.411-5.625c-2.089-2.044-4.028-4.187-5.801-6.489c1.425-0.024,2.841-0.075,4.266-0.104
			c2.868,1.848,5.076,4.825,7.133,7.457c1.111,1.42,2.28,3.548,3.783,4.9C64.16,167.954,62.838,167.912,61.515,167.862z
			 M67.832,168.085c-0.036-0.103-0.049-0.208-0.159-0.3c-0.682-0.573-1.22-1.598-1.785-2.3c-1.255-1.555-2.482-3.132-3.759-4.669
			c-1.503-1.812-3.191-3.758-5.15-5.232c1.564-0.036,3.124-0.08,4.688-0.116c2.59,4.393,5.681,8.865,9.07,12.704
			C69.769,168.142,68.801,168.119,67.832,168.085z M73.505,168.256c-2.803-4.542-6.659-8.613-10.063-12.832
			c1.139-0.026,2.277-0.056,3.415-0.084c2.844,1.935,4.773,4.804,6.638,7.637c1.074,1.632,2.12,3.677,3.427,5.356
			C75.784,168.307,74.646,168.289,73.505,168.256z M79.811,168.398c-1.454-2.769-3.855-5.422-5.647-7.898
			c-1.37-1.894-2.849-3.751-4.651-5.231c1.361-0.042,2.725-0.119,4.086-0.17c-0.103,0.203-0.081,0.456,0.18,0.573
			c1.099,0.495,2.001,1.956,2.741,2.854c1.297,1.57,2.503,3.219,3.694,4.87c0.958,1.328,2.002,3.52,3.327,5.01
			C82.296,168.395,81.06,168.419,79.811,168.398z M86.37,168.409c-0.917-2.514-3.168-4.75-4.799-6.811
			c-1.724-2.179-3.946-5.504-6.757-6.553c1.135-0.045,2.272-0.112,3.407-0.163c0.034,0.071,0.018,0.146,0.083,0.212
			c2.797,2.873,5.629,5.708,8.495,8.512c1.338,1.308,3.166,3.63,5.151,4.738C90.091,168.374,88.234,168.409,86.37,168.409z
			 M94.555,168.316c0.01-0.176-0.023-0.353-0.167-0.485c-4.726-4.359-9.606-8.567-14.261-13.039c2.787-0.128,5.578-0.29,8.368-0.441
			c0.584,2.185,2.202,4.335,3.396,5.875c1.724,2.221,3.605,4.29,5.616,6.253c0.503,0.49,1.092,1.076,1.719,1.617
			C97.668,168.172,96.12,168.275,94.555,168.316z M102.736,167.931c-0.17,0.012-0.343,0.012-0.513,0.023
			c-0.602-0.735-1.457-1.313-2.146-1.924c-1.625-1.438-3.19-2.922-4.687-4.496c-1.489-1.566-4.399-4.477-5.489-7.259
			c2.029-0.113,4.06-0.243,6.09-0.365c0.559,0.809,1.036,1.78,1.582,2.578c1.203,1.76,2.494,3.479,3.803,5.162
			c1.212,1.558,3.861,6.217,6.337,5.881C106.055,167.669,104.395,167.811,102.736,167.931z M107.822,167.522
			c0.379-0.089,0.562-0.593,0.361-0.911c-1.55-2.426-4.021-4.508-5.879-6.722c-1.725-2.055-3.396-4.119-5.234-6.045
			c1.99-0.12,3.979-0.252,5.971-0.379c1.424,2.706,3.069,5.311,4.822,7.797c1.259,1.783,2.763,4.1,4.515,5.842
			C110.86,167.241,109.339,167.396,107.822,167.522z M115.008,166.864c-1.645-1.97-3.742-3.709-5.391-5.657
			c-2.086-2.465-3.917-5.093-5.644-7.8c1.537-0.098,3.073-0.2,4.61-0.301c1.552,2.702,3.205,5.331,5.075,7.841
			c1.389,1.865,2.848,3.924,4.559,5.61C117.148,166.659,116.077,166.766,115.008,166.864z M120.678,166.323
			c-1.694-2.263-3.881-4.239-5.685-6.405c-1.826-2.192-3.486-4.52-5.065-6.898c2.015-0.133,4.029-0.266,6.045-0.397
			c1.301,2.855,3.111,5.48,4.919,8.045c1.049,1.488,2.291,3.536,3.701,5.284C123.288,166.076,121.982,166.197,120.678,166.323z
			 M127.714,165.655c-1.441-2.171-3.683-4.216-5.069-6.012c-1.765-2.284-3.503-4.647-5.021-7.13c1.691-0.111,3.38-0.211,5.07-0.319
			c1.64,2.962,3.51,5.774,5.554,8.475c1.146,1.515,2.354,3.148,3.699,4.604C130.535,165.401,129.124,165.522,127.714,165.655z
			 M134.75,165.021c-1.539-1.923-3.408-3.652-4.973-5.531c-1.983-2.38-3.8-4.89-5.632-7.387c1.315-0.084,2.63-0.155,3.945-0.238
			c1.672,2.303,3.23,4.679,4.741,7.093c1.185,1.892,2.353,4.09,3.814,5.923C136.015,164.935,135.382,164.965,134.75,165.021z
			 M139.306,164.687c-1.605-2.625-3.707-5.071-5.41-7.618c-1.215-1.817-2.477-3.594-3.804-5.323c0.996-0.062,1.991-0.111,2.988-0.17
			c2.086,2.54,3.919,5.24,5.773,7.958c1.077,1.58,2.274,3.564,3.806,4.928C141.54,164.543,140.422,164.599,139.306,164.687z
			 M145.264,164.286c-1.679-2.533-4.065-4.745-5.895-7.198c-1.436-1.926-2.911-3.843-4.545-5.611
			c1.918-0.113,3.833-0.204,5.749-0.311c1.44,2.568,3.2,4.965,4.994,7.287c1.185,1.534,2.609,3.925,4.25,5.572
			C148.299,164.111,146.781,164.184,145.264,164.286z M152.612,163.864c-0.956-2.174-3.362-4.169-4.812-5.869
			c-1.896-2.223-3.666-4.538-5.328-6.932c1.805-0.098,3.608-0.171,5.412-0.258c1.586,3.171,3.584,6.187,5.586,9.095
			c0.78,1.135,1.71,2.634,2.806,3.859C155.056,163.803,153.833,163.806,152.612,163.864z M161.946,163.602
			c-0.883,0.002-1.766,0.058-2.648,0.073c-1.299-1.931-3.192-3.647-4.571-5.481c-1.819-2.418-3.437-4.964-5.118-7.471
			c1.625-0.076,3.249-0.133,4.873-0.198c2.233,2.71,4.239,5.606,6.222,8.502c0.871,1.271,1.809,3.189,3.043,4.549
			C163.145,163.585,162.532,163.601,161.946,163.602z M166.52,163.522c-3.694-3.998-6.338-9.002-9.983-13.08
			c1.624-0.062,3.244-0.075,4.867-0.126c1.548,2.665,3.093,5.33,4.68,7.972c0.839,1.396,1.779,3.454,2.94,5.171
			C168.183,163.479,167.346,163.501,166.52,163.522z M172.04,163.407c-1.175-2.133-3.227-4.244-4.438-6.007
			c-1.62-2.357-3.2-4.742-4.787-7.121c1.095-0.032,2.187-0.037,3.282-0.064c2.133,2.651,3.772,5.644,5.48,8.593
			c0.775,1.339,1.699,3.156,2.868,4.626C173.643,163.422,172.839,163.4,172.04,163.407z M177.728,163.544
			c-1.805-2.414-3.798-4.659-5.448-7.255c-1.323-2.082-2.707-4.245-4.38-6.109c1.635-0.037,3.266-0.047,4.899-0.071
			c2.509,4.555,5.137,9.363,8.204,13.711C179.919,163.698,178.827,163.604,177.728,163.544z M184.481,164.362
			c-3.129-4.781-6.36-9.519-9.517-14.287c1.208-0.014,2.41,0.023,3.618,0.016c1.789,2.531,3.406,5.149,4.922,7.866
			c1.296,2.323,2.524,5.277,4.388,7.318C186.777,164.921,185.649,164.594,184.481,164.362z M185.184,156.978
			c-1.421-2.363-2.954-4.683-4.639-6.877c1.122-0.001,2.242,0.018,3.364,0.015l0,0c0.916,1.659,1.767,3.356,2.599,5.058
			c0.658,1.347,1.154,3.027,2.167,4.142c0.094,0.103,0.201,0.117,0.306,0.162c-0.017,1.124,0.021,2.247-0.045,3.369
			C187.801,160.824,186.328,158.881,185.184,156.978z"/>
		<path d="M28.348,120.76c-0.346-9.087-1.144-18.152-1.231-27.25c-0.01-0.989-0.819-1.817-1.817-1.816
			c-6.2,0.004-12.348,0.117-18.527,0.669c-0.991,0.089-1.839,0.767-1.833,1.833c0.076,14.978,0.358,29.677-1.245,44.601
			c-0.037,0.344,0.097,0.571,0.293,0.733c-0.338,0.859-0.075,2.006,0.99,2.174c3.494,0.551,6.996,0.881,10.533,1.001
			c2.818,0.096,6.71,0.338,9.18-1.229c0.187-0.119,0.253-0.289,0.366-0.441c0.594,0.622,1.629,0.798,2.11-0.175
			C29.979,135.178,28.58,126.881,28.348,120.76z M15.51,139.201c-3.229-0.001-6.457-0.312-9.672-0.588
			c2.722-8.178,2.987-16.556,3.038-25.135c0.032-5.389-0.162-10.778-0.247-16.165c-0.057-3.554,14.878-1.455,14.875-1.769
			c0.074,7.53,0.715,15.064,1.099,22.581c0.348,6.814-0.578,14.022-0.048,20.779c-0.195-0.105-0.377-0.23-0.627-0.248
			C21.188,138.455,18.304,139.202,15.51,139.201z"/>
		<path d="M57.268,73.122c-0.183-1.069-1.356-1.428-2.266-1.287c-6.726,1.044-13.336,0.717-20.095,0.619
			c-0.743-0.011-1.66,0.564-1.777,1.353c-3.312,22.258,2.404,44.39-1.767,66.638c-0.325,1.732,1.848,2.549,2.718,1.312
			c0.113,0.062,0.201,0.142,0.338,0.184c5.648,1.729,11.06,1.541,16.957,1.438c1.088-0.019,1.725-0.829,1.839-1.839
			C55.766,118.895,61.17,95.916,57.268,73.122z M53.393,112.075c-0.809,7.068-1.901,14.111-2.856,21.161
			c-1.169,8.635-7.664,7.448-15.142,5.16c-0.113-0.034-0.206-0.016-0.312-0.03c2.43-10.041,2.069-20.171,1.411-30.533
			c-0.408-6.429-0.844-12.822-0.952-19.266c-0.505-4.509,0.677-8.631,3.547-12.367c4.211,0.061,8.341,0.095,12.548-0.149
			C58.105,75.678,53.836,108.198,53.393,112.075z"/>
		<path d="M83.335,81.357c-1.834-10.055-12.121-8.186-19.413-6.776c-0.77,0.149-1.386,1.009-1.351,1.775
			c1.01,22.207-3.87,45.006,1.466,66.85c0.22,0.9,1.411,0.979,1.924,0.421c0.289,0.264,0.674,0.443,1.195,0.424
			c4.35-0.159,8.685-0.561,13.037-0.69c0.991-0.029,1.818-0.805,1.819-1.819c0.006-12.133,0.108-24.246,0.697-36.367
			C83.102,97.094,84.804,89.405,83.335,81.357z M78.616,115.625c-0.239,6.882-0.227,13.776-0.24,20.661
			c-0.011,5.632-6.95,3.883-11.22,4.118c-0.473,0.026-0.825,0.218-1.108,0.469c-0.954-11.088-0.894-22.14-0.384-33.264
			c0.277-6.048,0.611-12.088,0.794-18.14c0.218-7.226-1.725-12.027,7.18-12.614C84.812,76.119,78.829,109.508,78.616,115.625z"/>
		<path d="M108.782,94.196c-0.006-0.945-0.829-1.897-1.829-1.829c-5.023,0.342-14.495-0.877-18.316,3.587
			c-3.964,4.628-3.252,10.917-3.085,16.729c0.192,6.65,0.052,13.073-0.202,19.718c-0.12,3.126-0.904,9.239,2.765,10.639
			c0.392,0.15,0.766,0,1.039-0.267c-0.021,0.631,0.323,1.301,0.963,1.479c4.552,1.262,11.382-0.818,15.95-1.639
			c0.559-0.102,1.182-0.707,1.273-1.274C109.86,125.69,108.881,109.974,108.782,94.196z M105.279,126.746
			c-0.053,1.483-0.431,12.396-1.581,12.603c-2.568,0.461-5.182,0.77-7.764,1.109c-2.138,0.281-4.178,0.348-6.149,1.257
			c-0.115,0.054-0.151,0.159-0.235,0.234c0.207-6.321-0.378-12.716,0.004-19.149c0.59-9.938-5.006-25.138,9.428-26.402
			c7.38-0.646,6.156,2.017,6.294,8.717C105.423,112.331,105.536,119.529,105.279,126.746z"/>
		<path d="M136.922,85.276c-0.003-0.968-0.833-1.879-1.836-1.836c-6.911,0.295-16.338-0.549-19.656,6.927
			c-2.147,4.836-1.389,11.343-1.388,16.409c0.002,11.349,0.108,22.696,0.871,34.021c-1.28,0.981-0.997,3.44,0.96,3.262
			c6.403-0.584,12.787-0.664,19.213-0.675c1.028-0.002,1.812-0.838,1.844-1.843C137.518,122.786,136.974,104.034,136.922,85.276z
			 M133.545,119.938c0.032,5.772-0.043,11.545-0.167,17.315c-0.081,3.745-12.234,3.024-16.52,3.1
			c0.734-11.18,0.84-22.377,0.846-33.578c0.006-10.7-0.688-18.506,11.828-19.406c5.752-0.414,3.759,6.674,3.8,10.824
			C133.403,105.442,133.505,112.69,133.545,119.938z"/>
		<path d="M165.75,69.494c-0.169-1.275-1.042-1.983-2.336-1.78c-7.409,1.163-14.686,1.289-22.152,1.307
			c-0.971,0.003-1.894,0.838-1.847,1.846c1.115,23.694,6.102,46.884,6.163,70.675c0,0.128,0.085,0.178,0.112,0.284
			c0.019,0.902,0.592,1.714,1.746,1.562c5.283-0.697,10.456-1.175,15.781-1.372c1.035-0.038,1.808-0.812,1.847-1.846
			C165.956,116.601,168.877,93.011,165.75,69.494z M163.26,104.574c-0.246,6.885-0.743,13.764-1.161,20.64
			c-0.205,3.351-0.386,6.7-0.539,10.054c-0.217,4.332-9.967,4.135-13.447,4.367c1.364-12.851-0.241-25.496-1.919-38.286
			c-0.893-6.798-1.768-13.587-2.458-20.409c-1.121-11.055,7.632-8.182,15.905-8.93C165.875,71.446,163.411,100.37,163.26,104.574z"
			/>
	</g>
</g>
<g>
</g>
<g>
</g>
<g>
</g>
<g>
</g>
<g>
</g>
<g>
</g>
<g>
</g>
<g>
</g>
<g>
</g>
<g>
</g>
<g>
</g>
<g>
</g>
<g>
</g>
<g>
</g>
<g>
</g>
</svg>
