<?xml version="1.0" encoding="iso-8859-1"?>
<!-- Generator: Adobe Illustrator 19.0.0, SVG Export Plug-In . SVG Version: 6.00 Build 0)  -->
<svg version="1.1" id="Capa_1" xmlns="http://www.w3.org/2000/svg" xmlns:xlink="http://www.w3.org/1999/xlink" x="0px" y="0px"
	 viewBox="0 0 502.664 502.664" style="enable-background:new 0 0 502.664 502.664;" xml:space="preserve">
<g>
	<g>
		<g>
			<path style="fill:#010002;" d="M479.165,406.394l0.324-0.194L309.403,235.424l77.202-77.202l68.962-44.436l27.416-49.289
				l-31.86-31.903l-49.289,27.46l-44.479,68.94l-77.116,77.137l-76.512-76.835l-0.345-101.491L99.649,0L88.54,11.023l55.178,55.113
				L89.92,120.041L34.785,64.95l-11.109,10.98l27.848,103.755l98.708,0.259l-0.604,0.647l77.957,78.28l-28.819,28.84l-18.918-18.874
				l-29.164,29.185l9.06,9.017c-26.208,10.03-98.514,82.357-108.566,108.523l-9.017-9.038l-29.121,29.185l66.956,66.956
				l29.185-29.207l-9.103-9.06c26.209-9.966,98.557-82.336,108.566-108.501l9.038,9.081l29.164-29.207l-18.874-18.896l28.754-28.754
				l169.999,170.668l0.302-0.216c14.496,14.021,37.619,14.043,51.791-0.28C493.143,444.035,493.186,420.954,479.165,406.394z
				 M465.166,444.552c-6.385,6.385-16.696,6.45-23.145,0c-6.277-6.385-6.385-16.631-0.043-23.102c6.493-6.385,16.761-6.385,23.189,0
				C471.615,427.813,471.615,438.124,465.166,444.552z"/>
		</g>
	</g>
	<g>
	</g>
	<g>
	</g>
	<g>
	</g>
	<g>
	</g>
	<g>
	</g>
	<g>
	</g>
	<g>
	</g>
	<g>
	</g>
	<g>
	</g>
	<g>
	</g>
	<g>
	</g>
	<g>
	</g>
	<g>
	</g>
	<g>
	</g>
	<g>
	</g>
</g>
<g>
</g>
<g>
</g>
<g>
</g>
<g>
</g>
<g>
</g>
<g>
</g>
<g>
</g>
<g>
</g>
<g>
</g>
<g>
</g>
<g>
</g>
<g>
</g>
<g>
</g>
<g>
</g>
<g>
</g>
</svg>
